<mxfile host="65bd71144e" scale="1" border="0">
    <diagram id="MY_AZ7bL1nZhjMN0Z6ud" name="Page-1">
        <mxGraphModel dx="722" dy="1860" grid="1" gridSize="10" guides="1" tooltips="1" connect="1" arrows="1" fold="1" page="1" pageScale="1" pageWidth="827" pageHeight="1169" math="0" shadow="0">
            <root>
                <mxCell id="0"/>
                <mxCell id="1" parent="0"/>
                <mxCell id="ymDRiModoMVBHvbH05Dy-1" value="&lt;b&gt;DbContext&lt;/b&gt;" style="html=1;whiteSpace=wrap;" parent="1" vertex="1">
                    <mxGeometry x="94" y="-1014" width="110" height="50" as="geometry"/>
                </mxCell>
                <mxCell id="ymDRiModoMVBHvbH05Dy-2" value="Provided by EFCore" style="shape=note2;boundedLbl=1;whiteSpace=wrap;html=1;size=25;verticalAlign=top;align=center;" parent="1" vertex="1">
                    <mxGeometry x="294" y="-1104" width="120" height="60" as="geometry"/>
                </mxCell>
                <mxCell id="ymDRiModoMVBHvbH05Dy-3" value="" style="endArrow=none;dashed=1;html=1;rounded=0;exitX=1;exitY=0.25;exitDx=0;exitDy=0;entryX=0.15;entryY=1.067;entryDx=0;entryDy=0;entryPerimeter=0;" parent="1" source="ymDRiModoMVBHvbH05Dy-1" target="ymDRiModoMVBHvbH05Dy-2" edge="1">
                    <mxGeometry width="50" height="50" relative="1" as="geometry">
                        <mxPoint x="264" y="-964" as="sourcePoint"/>
                        <mxPoint x="314" y="-1014" as="targetPoint"/>
                    </mxGeometry>
                </mxCell>
                <mxCell id="ymDRiModoMVBHvbH05Dy-4" value="EduPalDatabaseContext" style="swimlane;fontStyle=1;align=center;verticalAlign=top;childLayout=stackLayout;horizontal=1;startSize=26;horizontalStack=0;resizeParent=1;resizeParentMax=0;resizeLast=0;collapsible=1;marginBottom=0;whiteSpace=wrap;html=1;" parent="1" vertex="1">
                    <mxGeometry x="54" y="-864" width="320" height="234" as="geometry"/>
                </mxCell>
                <mxCell id="ymDRiModoMVBHvbH05Dy-5" value="+ Subjects: DbSet&amp;lt;Subject&amp;gt;" style="text;strokeColor=none;fillColor=none;align=left;verticalAlign=top;spacingLeft=4;spacingRight=4;overflow=hidden;rotatable=0;points=[[0,0.5],[1,0.5]];portConstraint=eastwest;whiteSpace=wrap;html=1;" parent="ymDRiModoMVBHvbH05Dy-4" vertex="1">
                    <mxGeometry y="26" width="320" height="26" as="geometry"/>
                </mxCell>
                <mxCell id="ymDRiModoMVBHvbH05Dy-6" value="+ Topics: DbSet&amp;lt;Topic&amp;gt;" style="text;strokeColor=none;fillColor=none;align=left;verticalAlign=top;spacingLeft=4;spacingRight=4;overflow=hidden;rotatable=0;points=[[0,0.5],[1,0.5]];portConstraint=eastwest;whiteSpace=wrap;html=1;" parent="ymDRiModoMVBHvbH05Dy-4" vertex="1">
                    <mxGeometry y="52" width="320" height="26" as="geometry"/>
                </mxCell>
                <mxCell id="3" value="+ Quizzes: DbSet&lt;Quiz&gt;" style="text;strokeColor=none;fillColor=none;align=left;verticalAlign=top;spacingLeft=4;spacingRight=4;overflow=hidden;rotatable=0;points=[[0,0.5],[1,0.5]];portConstraint=eastwest;" vertex="1" parent="ymDRiModoMVBHvbH05Dy-4">
                    <mxGeometry y="78" width="320" height="26" as="geometry"/>
                </mxCell>
                <mxCell id="4" value="+ Questions: DbSet&lt;Question&gt;" style="text;strokeColor=none;fillColor=none;align=left;verticalAlign=top;spacingLeft=4;spacingRight=4;overflow=hidden;rotatable=0;points=[[0,0.5],[1,0.5]];portConstraint=eastwest;" vertex="1" parent="ymDRiModoMVBHvbH05Dy-4">
                    <mxGeometry y="104" width="320" height="26" as="geometry"/>
                </mxCell>
                <mxCell id="5" value="+ Options: DbSet&lt;Option&gt;" style="text;strokeColor=none;fillColor=none;align=left;verticalAlign=top;spacingLeft=4;spacingRight=4;overflow=hidden;rotatable=0;points=[[0,0.5],[1,0.5]];portConstraint=eastwest;" vertex="1" parent="ymDRiModoMVBHvbH05Dy-4">
                    <mxGeometry y="130" width="320" height="26" as="geometry"/>
                </mxCell>
                <mxCell id="ymDRiModoMVBHvbH05Dy-7" value="+ Conspectuses: DbSet&amp;lt;Conspectus&amp;gt;" style="text;strokeColor=none;fillColor=none;align=left;verticalAlign=top;spacingLeft=4;spacingRight=4;overflow=hidden;rotatable=0;points=[[0,0.5],[1,0.5]];portConstraint=eastwest;whiteSpace=wrap;html=1;" parent="ymDRiModoMVBHvbH05Dy-4" vertex="1">
                    <mxGeometry y="156" width="320" height="26" as="geometry"/>
                </mxCell>
                <mxCell id="ymDRiModoMVBHvbH05Dy-8" value="+ OpenAIChatMessages: DbSet&amp;lt;OpenAIChatMessage&amp;gt;" style="text;strokeColor=none;fillColor=none;align=left;verticalAlign=top;spacingLeft=4;spacingRight=4;overflow=hidden;rotatable=0;points=[[0,0.5],[1,0.5]];portConstraint=eastwest;whiteSpace=wrap;html=1;" parent="ymDRiModoMVBHvbH05Dy-4" vertex="1">
                    <mxGeometry y="182" width="320" height="26" as="geometry"/>
                </mxCell>
                <mxCell id="6" value="..." style="text;strokeColor=none;fillColor=none;align=left;verticalAlign=top;spacingLeft=4;spacingRight=4;overflow=hidden;rotatable=0;points=[[0,0.5],[1,0.5]];portConstraint=eastwest;" vertex="1" parent="ymDRiModoMVBHvbH05Dy-4">
                    <mxGeometry y="208" width="320" height="26" as="geometry"/>
                </mxCell>
                <mxCell id="ymDRiModoMVBHvbH05Dy-14" value="" style="edgeStyle=none;html=1;endSize=12;endArrow=block;endFill=0;rounded=0;entryX=0.5;entryY=1;entryDx=0;entryDy=0;exitX=0.5;exitY=0;exitDx=0;exitDy=0;" parent="1" source="ymDRiModoMVBHvbH05Dy-4" target="ymDRiModoMVBHvbH05Dy-1" edge="1">
                    <mxGeometry width="160" relative="1" as="geometry">
                        <mxPoint x="314" y="-994" as="sourcePoint"/>
                        <mxPoint x="474" y="-994" as="targetPoint"/>
                    </mxGeometry>
                </mxCell>
                <mxCell id="ymDRiModoMVBHvbH05Dy-15" value="" style="group" parent="1" vertex="1" connectable="0">
                    <mxGeometry x="431" y="-1014" width="370" height="176" as="geometry"/>
                </mxCell>
                <mxCell id="ymDRiModoMVBHvbH05Dy-16" value="Repository" style="swimlane;fontStyle=1;align=center;verticalAlign=top;childLayout=stackLayout;horizontal=1;startSize=26;horizontalStack=0;resizeParent=1;resizeParentMax=0;resizeLast=0;collapsible=1;marginBottom=0;whiteSpace=wrap;html=1;" parent="ymDRiModoMVBHvbH05Dy-15" vertex="1">
                    <mxGeometry y="20" width="370" height="222" as="geometry"/>
                </mxCell>
                <mxCell id="ymDRiModoMVBHvbH05Dy-17" value="" style="html=1;whiteSpace=wrap;" parent="ymDRiModoMVBHvbH05Dy-16" vertex="1">
                    <mxGeometry y="26" width="370" height="14" as="geometry"/>
                </mxCell>
                <mxCell id="ymDRiModoMVBHvbH05Dy-18" value="+ Get(id: String): TEntity [0..1]" style="text;strokeColor=none;fillColor=none;align=left;verticalAlign=top;spacingLeft=4;spacingRight=4;overflow=hidden;rotatable=0;points=[[0,0.5],[1,0.5]];portConstraint=eastwest;whiteSpace=wrap;html=1;" parent="ymDRiModoMVBHvbH05Dy-16" vertex="1">
                    <mxGeometry y="40" width="370" height="26" as="geometry"/>
                </mxCell>
                <mxCell id="ymDRiModoMVBHvbH05Dy-19" value="+ GetAsync(id: String): Task&amp;lt;TEntity [0..1]&amp;gt;" style="text;strokeColor=none;fillColor=none;align=left;verticalAlign=top;spacingLeft=4;spacingRight=4;overflow=hidden;rotatable=0;points=[[0,0.5],[1,0.5]];portConstraint=eastwest;whiteSpace=wrap;html=1;" parent="ymDRiModoMVBHvbH05Dy-16" vertex="1">
                    <mxGeometry y="66" width="370" height="26" as="geometry"/>
                </mxCell>
                <mxCell id="ymDRiModoMVBHvbH05Dy-20" value="+ GetAll(): TEntity [0..*]" style="text;strokeColor=none;fillColor=none;align=left;verticalAlign=top;spacingLeft=4;spacingRight=4;overflow=hidden;rotatable=0;points=[[0,0.5],[1,0.5]];portConstraint=eastwest;whiteSpace=wrap;html=1;" parent="ymDRiModoMVBHvbH05Dy-16" vertex="1">
                    <mxGeometry y="92" width="370" height="26" as="geometry"/>
                </mxCell>
                <mxCell id="ymDRiModoMVBHvbH05Dy-21" value="+ Find(predicate: Func&amp;lt;TEntity, Bool&amp;gt;): TEntity [0..*]" style="text;strokeColor=none;fillColor=none;align=left;verticalAlign=top;spacingLeft=4;spacingRight=4;overflow=hidden;rotatable=0;points=[[0,0.5],[1,0.5]];portConstraint=eastwest;whiteSpace=wrap;html=1;" parent="ymDRiModoMVBHvbH05Dy-16" vertex="1">
                    <mxGeometry y="118" width="370" height="26" as="geometry"/>
                </mxCell>
                <mxCell id="ymDRiModoMVBHvbH05Dy-22" value="+ FindAsync(predicate: Func&amp;lt;TEntity, Bool&amp;gt;): Task&amp;lt;TEntity [0..*]&amp;gt;" style="text;strokeColor=none;fillColor=none;align=left;verticalAlign=top;spacingLeft=4;spacingRight=4;overflow=hidden;rotatable=0;points=[[0,0.5],[1,0.5]];portConstraint=eastwest;whiteSpace=wrap;html=1;" parent="ymDRiModoMVBHvbH05Dy-16" vertex="1">
                    <mxGeometry y="144" width="370" height="26" as="geometry"/>
                </mxCell>
                <mxCell id="ymDRiModoMVBHvbH05Dy-23" value="+ Add(entity: TEntity): void" style="text;strokeColor=none;fillColor=none;align=left;verticalAlign=top;spacingLeft=4;spacingRight=4;overflow=hidden;rotatable=0;points=[[0,0.5],[1,0.5]];portConstraint=eastwest;whiteSpace=wrap;html=1;" parent="ymDRiModoMVBHvbH05Dy-16" vertex="1">
                    <mxGeometry y="170" width="370" height="26" as="geometry"/>
                </mxCell>
                <mxCell id="ymDRiModoMVBHvbH05Dy-24" value="+ Remove(entity: TEntity): void" style="text;strokeColor=none;fillColor=none;align=left;verticalAlign=top;spacingLeft=4;spacingRight=4;overflow=hidden;rotatable=0;points=[[0,0.5],[1,0.5]];portConstraint=eastwest;whiteSpace=wrap;html=1;" parent="ymDRiModoMVBHvbH05Dy-16" vertex="1">
                    <mxGeometry y="196" width="370" height="26" as="geometry"/>
                </mxCell>
                <mxCell id="ymDRiModoMVBHvbH05Dy-25" value="TEntity: BaseEntity" style="fontStyle=0;dashed=1;html=1;whiteSpace=wrap;" parent="ymDRiModoMVBHvbH05Dy-15" vertex="1">
                    <mxGeometry x="222.99886925795053" width="136.96113074204945" height="30" as="geometry"/>
                </mxCell>
                <mxCell id="m926-wA_H4Xn4vww5zRk-3" value="" style="endArrow=open;html=1;endSize=12;startArrow=diamondThin;startSize=14;startFill=0;edgeStyle=orthogonalEdgeStyle;align=left;verticalAlign=bottom;rounded=0;entryX=1;entryY=0.75;entryDx=0;entryDy=0;exitX=0;exitY=0.5;exitDx=0;exitDy=0;" parent="1" source="ymDRiModoMVBHvbH05Dy-19" target="ymDRiModoMVBHvbH05Dy-1" edge="1">
                    <mxGeometry x="-1" y="3" relative="1" as="geometry">
                        <mxPoint x="280" y="-930" as="sourcePoint"/>
                        <mxPoint x="440" y="-930" as="targetPoint"/>
                        <mxPoint as="offset"/>
                    </mxGeometry>
                </mxCell>
                <mxCell id="m926-wA_H4Xn4vww5zRk-4" value="1" style="edgeLabel;html=1;align=center;verticalAlign=middle;resizable=0;points=[];" parent="m926-wA_H4Xn4vww5zRk-3" vertex="1" connectable="0">
                    <mxGeometry x="0.8267" relative="1" as="geometry">
                        <mxPoint x="12" y="-12" as="offset"/>
                    </mxGeometry>
                </mxCell>
            </root>
        </mxGraphModel>
    </diagram>
</mxfile>
